<?xml version="1.0" encoding="UTF-8"?>
<svg version="1.1" xmlns="http://www.w3.org/2000/svg" width="64" height="64">
<path d="M0 0 C8.34468007 4.97590182 13.53387008 11.86345977 16.109375 21.2578125 C17.10789012 32.35758522 16.45884702 41.9922991 9.359375 51.0703125 C3.70168013 57.1280464 -3.34488592 60.84888618 -11.625 61.59375 C-22.35447774 61.83515993 -31.19802606 60.58332943 -39.359375 52.9609375 C-46.75303791 44.73737365 -48.47252567 36.02335615 -48.203125 25.24609375 C-47.72879865 16.86039919 -44.11592977 9.8548755 -37.890625 4.2578125 C-27.15195714 -3.81766573 -12.32399863 -5.91386512 0 0 Z " fill="#0B032B" transform="translate(47.890625,2.7421875)"/>
<path d="M0 0 C0.70253906 -0.00773438 1.40507813 -0.01546875 2.12890625 -0.0234375 C5.86821394 -0.00930023 8.70232667 0.17872104 11.875 2.25 C7.46656563 7.54012124 2.79940206 12.43808428 -2.125 17.25 C-1.46113281 17.46914063 -0.79726563 17.68828125 -0.11328125 17.9140625 C0.76972656 18.23117188 1.65273438 18.54828125 2.5625 18.875 C3.43261719 19.17664063 4.30273438 19.47828125 5.19921875 19.7890625 C8.64870424 21.67243122 11.07886711 23.76314434 12.875 27.25 C13.44460754 30.40928118 13.35319192 33.42842057 13.1875 36.625 C13.16494141 37.45644531 13.14238281 38.28789063 13.11914062 39.14453125 C13.06063654 41.18047353 12.97096795 43.21547945 12.875 45.25 C10.9375 44.875 10.9375 44.875 8.875 44.25 C7.08069648 40.66139296 7.57889968 36.37603851 7.44921875 32.4140625 C6.77563326 28.70246896 5.85402186 27.4964755 2.875 25.25 C-0.71429251 24.65178458 -2.4237069 24.83641689 -5.5625 26.6875 C-7.92339207 30.55936299 -6.97241312 33.9392463 -6.125 38.25 C-4.96871094 38.43175781 -4.96871094 38.43175781 -3.7890625 38.6171875 C-2.78617188 38.78476562 -1.78328125 38.95234375 -0.75 39.125 C0.24773438 39.28742187 1.24546875 39.44984375 2.2734375 39.6171875 C4.875 40.25 4.875 40.25 6.875 42.25 C6.875 43.24 6.875 44.23 6.875 45.25 C-4.76521918 46.28213766 -4.76521918 46.28213766 -9.3125 42.5625 C-12.00941135 40.02307253 -12.61062322 37.8878213 -13.125 34.25 C-18.34825977 38.71351289 -23.33422972 43.3244893 -28.125 48.25 C-31.90596023 44.46903977 -32.38840174 39.73948081 -32.50537109 34.54077148 C-32.47884816 24.46326096 -30.95077944 16.40752648 -23.828125 8.78125 C-16.79654377 2.45927788 -9.43470799 -0.10502458 0 0 Z " fill="#733EAD" transform="translate(32.125,-0.25)"/>
<path d="M0 0 C2.99118343 0.62316321 4.94659943 1.2922193 7.02734375 3.59375 C9.6273638 9.02351075 9.88546028 16.96861915 8 22.625 C6.25203125 22.65400391 6.25203125 22.65400391 4.46875 22.68359375 C-1.10609209 23.38044901 -3.85475723 26.68633761 -7.5 30.6875 C-8.13164062 31.35072266 -8.76328125 32.01394531 -9.4140625 32.69726562 C-10.95988245 34.32506088 -12.4869347 35.96681566 -14 37.625 C-19.7042709 35.51732024 -25.00218884 32.09159683 -28 26.625 C-27.56356098 23.47563693 -26.57949887 21.82749348 -24.34765625 19.609375 C-23.81849609 19.08085938 -23.28933594 18.55234375 -22.74414062 18.0078125 C-22.18919922 17.46898438 -21.63425781 16.93015625 -21.0625 16.375 C-20.51142578 15.82070313 -19.96035156 15.26640625 -19.39257812 14.6953125 C-15.26712592 10.625 -15.26712592 10.625 -13 10.625 C-12.608125 11.5325 -12.21625 12.44 -11.8125 13.375 C-9.75816949 17.05862712 -8.6997333 18.58637145 -5 20.625 C-1.00531995 21.24558345 2.96187522 21.49619219 7 21.625 C6.28306804 19.58586188 6.28306804 19.58586188 5 17.625 C2.99477526 17.36626132 0.98749571 17.11352051 -1.02734375 16.9453125 C-3 16.625 -3 16.625 -5.4375 15 C-7.58454787 11.73648724 -8.06854287 9.53194348 -8 5.625 C-5.59686932 2.20235933 -4.11289267 0.85685264 0 0 Z " fill="#392C5A" transform="translate(32,23.375)"/>
<path d="M0 0 C3.71421117 1.11426335 6.679159 2.13955695 9.625 4.6875 C10.17414062 5.14511719 10.72328125 5.60273437 11.2890625 6.07421875 C13.71185854 8.80124717 15.25916902 11.79580673 17 15 C16.00097656 15.83660156 15.00195312 16.67320313 13.97265625 17.53515625 C5.26359721 24.93991365 5.26359721 24.93991365 1.65795898 35.34936523 C1.61069626 38.25409736 1.71659342 41.10925284 2 44 C1.34 43.67 0.68 43.34 0 43 C0.05800781 41.77023438 0.11601563 40.54046875 0.17578125 39.2734375 C0.22270005 37.64066312 0.26819794 36.00784748 0.3125 34.375 C0.35439453 33.56675781 0.39628906 32.75851563 0.43945312 31.92578125 C0.52351025 27.79017075 0.39117967 24.88175517 -2.1875 21.53125 C-5.00041137 18.99962977 -6.68256462 17.99618449 -10.3125 17.125 C-11.63701172 16.78855469 -11.63701172 16.78855469 -12.98828125 16.4453125 C-13.65214844 16.29835938 -14.31601562 16.15140625 -15 16 C-10.30233025 10.33870569 -5.25276628 5.14771096 0 0 Z " fill="#3B2E5C" transform="translate(44,2)"/>
<path d="M0 0 C4.17444637 1.76254402 6.58723878 4.18773694 9 8 C9.4795768 11.121801 9.37923474 14.16364588 9.25 17.3125 C9.23195313 18.14845703 9.21390625 18.98441406 9.1953125 19.84570312 C9.14841126 21.89763228 9.07667411 23.94896756 9 26 C7.0625 25.625 7.0625 25.625 5 25 C3.20569648 21.41139296 3.70389968 17.12603851 3.57421875 13.1640625 C2.90063326 9.45246896 1.97902186 8.2464755 -1 6 C-4.58929251 5.40178458 -6.2987069 5.58641689 -9.4375 7.4375 C-11.79839207 11.30936299 -10.84741312 14.6892463 -10 19 C-9.22914062 19.12117188 -8.45828125 19.24234375 -7.6640625 19.3671875 C-6.66117188 19.53476562 -5.65828125 19.70234375 -4.625 19.875 C-3.62726562 20.03742187 -2.62953125 20.19984375 -1.6015625 20.3671875 C1 21 1 21 3 23 C3 23.99 3 24.98 3 26 C-7.28095985 26.9116122 -7.28095985 26.9116122 -11.3203125 24.76953125 C-14.79893587 21.82216208 -16.59669506 19.63424492 -17.30859375 14.984375 C-17.57869328 10.30264985 -17.21806602 7.64244271 -14.125 4 C-9.82925245 -0.48251919 -6.01929284 -0.57475886 0 0 Z " fill="#F9F8FA" transform="translate(36,19)"/>
<path d="M0 0 C2.475 0.99 2.475 0.99 5 2 C0.59156563 7.29012124 -4.07559794 12.18808428 -9 17 C-7.68 17.66 -6.36 18.32 -5 19 C-5.59167969 19.07476563 -6.18335937 19.14953125 -6.79296875 19.2265625 C-10.91333496 19.91216993 -14.12306628 20.50505119 -17 23.6875 C-19.23895677 26.85021598 -19.23895677 26.85021598 -19.3125 30.4375 C-20.21202018 35.09865002 -22.17968667 36.34948885 -25.7890625 39.22265625 C-29.11294366 41.89468086 -32.03015584 44.94662897 -35 48 C-37.9124672 45.0875328 -37.97043638 43.0752927 -38 39 C-36.20140147 36.48932634 -34.66586646 34.74723622 -32.4375 32.69140625 C-31.56134033 31.83578346 -31.56134033 31.83578346 -30.66748047 30.96287537 C-28.79629775 29.1429803 -26.89971273 27.35254903 -25 25.5625 C-23.1390915 23.77427946 -21.28381398 21.98036306 -19.42906189 20.1857605 C-18.23423467 19.03047755 -17.03712703 17.87754807 -15.83766174 16.7270813 C-12.11973557 13.14721235 -8.59405074 9.47770346 -5.27709961 5.51733398 C-3.63058401 3.56109341 -1.84358372 1.76984037 0 0 Z " fill="#593C8C" transform="translate(39,0)"/>
<path d="M0 0 C-4.92757056 5.98527736 -10.30948225 11.46310225 -15.79711914 16.92749023 C-17.33013372 18.45507121 -18.85763767 19.98802081 -20.38476562 21.52148438 C-21.35644973 22.49250893 -22.32844331 23.46322392 -23.30078125 24.43359375 C-24.17903564 25.31072021 -25.05729004 26.18784668 -25.9621582 27.09155273 C-28 29 -28 29 -29 29 C-28.36023359 20.04327023 -25.34418993 13.48837606 -19 7 C-13.23144921 2.68851587 -7.37845423 -0.43402672 0 0 Z " fill="#775A9A" transform="translate(29,0)"/>
<path d="M0 0 C2.99118343 0.62316321 4.94659943 1.2922193 7.02734375 3.59375 C9.6273638 9.02351075 9.88546028 16.96861915 8 22.625 C4.7 22.625 1.4 22.625 -2 22.625 C-2 22.295 -2 21.965 -2 21.625 C0.97 21.625 3.94 21.625 7 21.625 C6.34 20.305 5.68 18.985 5 17.625 C2.99477526 17.36626132 0.98749571 17.11352051 -1.02734375 16.9453125 C-3 16.625 -3 16.625 -5.4375 15 C-7.58454787 11.73648724 -8.06854287 9.53194348 -8 5.625 C-5.59686932 2.20235933 -4.11289267 0.85685264 0 0 Z " fill="#443763" transform="translate(32,23.375)"/>
<path d="M0 0 C0.99 0.33 1.98 0.66 3 1 C2.43152344 1.556875 1.86304688 2.11375 1.27734375 2.6875 C0.50519531 3.450625 -0.26695313 4.21375 -1.0625 5 C-1.81660156 5.7425 -2.57070313 6.485 -3.34765625 7.25 C-5.34808493 9.32408217 -7.22422902 11.40772757 -9.09375 13.59375 C-13.92915948 19.16707504 -19.20120421 24.30857465 -24.4375 29.5 C-25.4657298 30.52320139 -26.49372626 31.54663733 -27.52148438 32.5703125 C-30.01164338 35.04957999 -32.50492833 37.52567538 -35 40 C-35.69944763 38.23492432 -35.69944763 38.23492432 -36 36 C-34.7535553 34.15228271 -34.7535553 34.15228271 -32.80883789 32.24121094 C-32.08801529 31.52076599 -31.36719269 30.80032104 -30.62452698 30.05804443 C-29.83190964 29.29123352 -29.0392923 28.52442261 -28.22265625 27.734375 C-27.42218369 26.94097717 -26.62171112 26.14757935 -25.79698181 25.33013916 C-23.23028253 22.7914932 -20.64676874 20.27074669 -18.0625 17.75 C-16.32243468 16.035003 -14.5834871 14.31887112 -12.84570312 12.6015625 C-8.57669876 8.38777299 -4.29374986 4.1885635 0 0 Z " fill="#6739A2" transform="translate(36,0)"/>
<path d="M0 0 C0.66 0.66 1.32 1.32 2 2 C1.01 2.495 1.01 2.495 0 3 C0 2.01 0 1.02 0 0 Z M0 3 C-1.96235494 5.3754823 -3.95496261 7.69630175 -6 10 C-6.79664063 10.89976563 -7.59328125 11.79953125 -8.4140625 12.7265625 C-9.26742188 13.64179687 -10.12078125 14.55703125 -11 15.5 C-11.804375 16.3765625 -12.60875 17.253125 -13.4375 18.15625 C-16 20 -16 20 -19.3125 19.78125 C-20.199375 19.5234375 -21.08625 19.265625 -22 19 C-20.33641615 14.87110516 -17.41640847 11.90461226 -14.375 8.75 C-13.63056641 7.91855469 -13.63056641 7.91855469 -12.87109375 7.0703125 C-8.67694428 2.73742526 -5.95811981 2.40548045 0 3 Z " fill="#160A34" transform="translate(40,43)"/>
<path d="M0 0 C2 1 2 1 2.83544922 2.81933594 C3 5 3 5 1.66064453 6.92285156 C0.99145996 7.5722168 0.32227539 8.22158203 -0.3671875 8.890625 C-1.08777344 9.59960938 -1.80835938 10.30859375 -2.55078125 11.0390625 C-3.31777344 11.76867188 -4.08476563 12.49828125 -4.875 13.25 C-5.63425781 13.99507812 -6.39351562 14.74015625 -7.17578125 15.5078125 C-12.81885302 21 -12.81885302 21 -14 21 C-14.49397363 17.57305793 -14.72263049 15.04066318 -12.6875 12.10986328 C-10.86002322 10.1717385 -8.96800807 8.3576425 -7 6.5625 C-6.33226562 5.92634766 -5.66453125 5.29019531 -4.9765625 4.63476562 C-3.33240682 3.07281773 -1.67425288 1.52953687 0 0 Z " fill="#1E0F3A" transform="translate(60,17)"/>
<path d="M0 0 C1.32 0.33 2.64 0.66 4 1 C-5.24 10.24 -14.48 19.48 -24 29 C-24.33 27.68 -24.66 26.36 -25 25 C-23.32701411 22.8159579 -21.71825837 21.01763439 -19.76953125 19.10546875 C-18.94928719 18.27804924 -18.94928719 18.27804924 -18.11247253 17.43391418 C-16.95246475 16.27050247 -15.78611287 15.11338726 -14.61401367 13.9621582 C-12.81916965 12.19407023 -11.05252396 10.40093466 -9.28710938 8.60351562 C-8.15784972 7.47755997 -7.02704002 6.35315632 -5.89453125 5.23046875 C-5.36519485 4.6910112 -4.83585846 4.15155365 -4.29048157 3.5957489 C-2.76489258 2.11791992 -2.76489258 2.11791992 0 0 Z " fill="#774EA3" transform="translate(25,0)"/>
<path d="M0 0 C0.33 0 0.66 0 1 0 C1.37471526 4.45978075 1.37471526 4.45978075 -0.28515625 6.8527832 C-0.87167969 7.41312256 -1.45820313 7.97346191 -2.0625 8.55078125 C-3.00996094 9.47407227 -3.00996094 9.47407227 -3.9765625 10.41601562 C-4.64429688 11.04185547 -5.31203125 11.66769531 -6 12.3125 C-7.00160156 13.28026367 -7.00160156 13.28026367 -8.0234375 14.26757812 C-9.67161203 15.85688927 -11.33029098 17.43337902 -13 19 C-13.66 18.34 -14.32 17.68 -15 17 C-14.75232302 12.71872654 -13.22217009 10.723306 -10.1875 7.8125 C-9.15689453 6.80123047 -9.15689453 6.80123047 -8.10546875 5.76953125 C-6.12264431 4.10307583 -4.32146533 3.10476442 -2 2 C-1.34 1.34 -0.68 0.68 0 0 Z " fill="#4E3780" transform="translate(17,29)"/>
<path d="M0 0 C0.56976563 0.2475 1.13953125 0.495 1.7265625 0.75 C0.15100015 4.59938529 -2.31697337 6.99588522 -5.2734375 9.875 C-6.1603125 10.74382813 -7.0471875 11.61265625 -7.9609375 12.5078125 C-8.7240625 13.24773438 -9.4871875 13.98765625 -10.2734375 14.75 C-10.9334375 15.41 -11.5934375 16.07 -12.2734375 16.75 C-14.8984375 16.375 -14.8984375 16.375 -17.2734375 15.75 C-13.85581851 11.63133096 -10.32849392 7.63686951 -6.6484375 3.75 C-5.91367187 2.96625 -5.17890625 2.1825 -4.421875 1.375 C-2.2734375 -0.25 -2.2734375 -0.25 0 0 Z " fill="#4A387A" transform="translate(46.2734375,2.25)"/>
<path d="M0 0 C0.66 0.66 1.32 1.32 2 2 C-4.6 8.6 -11.2 15.2 -18 22 C-18.66 21.67 -19.32 21.34 -20 21 C-19.43152344 20.443125 -18.86304687 19.88625 -18.27734375 19.3125 C-13.83717413 14.92421884 -9.57346878 10.46743106 -5.5078125 5.73046875 C-3.76065928 3.72531622 -1.91829882 1.84156687 0 0 Z " fill="#5E3996" transform="translate(39,0)"/>
<path d="M0 0 C2.18408203 0.35083008 2.18408203 0.35083008 4 1 C1.57473278 3.51212252 -0.86712007 6.00746398 -3.3125 8.5 C-4.00279297 9.21542969 -4.69308594 9.93085937 -5.40429688 10.66796875 C-6.07138672 11.34472656 -6.73847656 12.02148438 -7.42578125 12.71875 C-8.34484253 13.66137695 -8.34484253 13.66137695 -9.2824707 14.62304688 C-11 16 -11 16 -14 16 C-12.32357676 11.74685214 -9.2824091 8.87898186 -6.125 5.6875 C-5.59519531 5.12482422 -5.06539062 4.56214844 -4.51953125 3.98242188 C-2.9453125 2.38671875 -2.9453125 2.38671875 0 0 Z " fill="#261541" transform="translate(32,46)"/>
<path d="M0 0 C0.33 0.99 0.66 1.98 1 3 C-3.62 7.62 -8.24 12.24 -13 17 C-13.66 16.01 -14.32 15.02 -15 14 C-14.50371094 13.57589844 -14.00742188 13.15179688 -13.49609375 12.71484375 C-8.79678658 8.65756716 -4.32846012 4.45019806 0 0 Z " fill="#453872" transform="translate(17,31)"/>
<path d="M0 0 C0.33 0.99 0.66 1.98 1 3 C-3.62 7.62 -8.24 12.24 -13 17 C-13.33 16.01 -13.66 15.02 -14 14 C-9.38 9.38 -4.76 4.76 0 0 Z " fill="#2B1845" transform="translate(60,17)"/>
<path d="M0 0 C-1.57556235 3.84938529 -4.04353587 6.24588522 -7 9.125 C-7.886875 9.99382813 -8.77375 10.86265625 -9.6875 11.7578125 C-10.450625 12.49773438 -11.21375 13.23765625 -12 14 C-12.66 14.66 -13.32 15.32 -14 16 C-14.66 15.34 -15.32 14.68 -16 14 C-13.71643754 11.65861457 -11.42186626 9.32833018 -9.125 7 C-8.47402344 6.33226562 -7.82304688 5.66453125 -7.15234375 4.9765625 C-6.52714844 4.34492187 -5.90195312 3.71328125 -5.2578125 3.0625 C-4.6817627 2.47597656 -4.10571289 1.88945313 -3.51220703 1.28515625 C-2 0 -2 0 0 0 Z " fill="#41386D" transform="translate(48,3)"/>
</svg>
