<?xml version="1.0" encoding="UTF-8"?>
<svg version="1.1" xmlns="http://www.w3.org/2000/svg" width="60" height="36">
<path d="M0 0 C1.4540625 0.0309375 1.4540625 0.0309375 2.9375 0.0625 C10.9375 19.03483202 10.9375 19.03483202 10.9375 23.0625 C8.9575 23.0625 6.9775 23.0625 4.9375 23.0625 C4.4425 20.5875 4.4425 20.5875 3.9375 18.0625 C1.2975 18.0625 -1.3425 18.0625 -4.0625 18.0625 C-4.3925 19.7125 -4.7225 21.3625 -5.0625 23.0625 C-7.3725 23.0625 -9.6825 23.0625 -12.0625 23.0625 C-10.75452911 19.41502562 -9.44037012 15.7698119 -8.125 12.125 C-7.56522461 10.56362305 -7.56522461 10.56362305 -6.99414062 8.97070312 C-6.63642578 7.98134766 -6.27871094 6.99199219 -5.91015625 5.97265625 C-5.58023682 5.05621338 -5.25031738 4.13977051 -4.91040039 3.19555664 C-3.66992276 0.07489638 -3.66992276 0.07489638 0 0 Z M-1.0625 8.0625 C-1.3925 10.0425 -1.7225 12.0225 -2.0625 14.0625 C-0.7425 14.0625 0.5775 14.0625 1.9375 14.0625 C1.2775 12.0825 0.6175 10.1025 -0.0625 8.0625 C-0.3925 8.0625 -0.7225 8.0625 -1.0625 8.0625 Z " fill="#FFFFFF" transform="translate(13.0625,4.9375)"/>
<path d="M0 0 C0.7734375 -0.01675781 1.546875 -0.03351562 2.34375 -0.05078125 C5.02194538 0.40043645 5.91063549 1.13731203 7.5 3.3125 C7.5 4.3025 7.5 5.2925 7.5 6.3125 C6.51 6.8075 6.51 6.8075 5.5 7.3125 C6.015625 7.68375 6.53125 8.055 7.0625 8.4375 C8.5 10.3125 8.5 10.3125 8.4375 13.375 C7.5 16.3125 7.5 16.3125 5.875 17.6875 C1.6495766 18.79945353 -1.98887354 19.08743665 -5.9375 17.0625 C-7.5 15.3125 -7.5 15.3125 -7.5 11.3125 C-5.85 11.3125 -4.2 11.3125 -2.5 11.3125 C-2.17 11.9725 -1.84 12.6325 -1.5 13.3125 C-0.51 13.3125 0.48 13.3125 1.5 13.3125 C1.83 12.6525 2.16 11.9925 2.5 11.3125 C1.86191406 11.17972656 1.22382812 11.04695313 0.56640625 10.91015625 C-0.25988281 10.73355469 -1.08617187 10.55695312 -1.9375 10.375 C-2.76121094 10.20097656 -3.58492187 10.02695312 -4.43359375 9.84765625 C-6.5 9.3125 -6.5 9.3125 -7.5 8.3125 C-7.75 5.375 -7.75 5.375 -7.5 2.3125 C-4.40219052 0.24729368 -3.5459519 0.01772976 0 0 Z M-0.5 3.3125 C-1.16 3.9725 -1.82 4.6325 -2.5 5.3125 C-0.025 5.8075 -0.025 5.8075 2.5 6.3125 C2.5 5.6525 2.5 4.9925 2.5 4.3125 C1.51 3.9825 0.52 3.6525 -0.5 3.3125 Z " fill="#FFFFFF" transform="translate(32.5,10.6875)"/>
<path d="M0 0 C4 0 8 0 12 0 C12 1.65 12 3.3 12 5 C10.35 5.33 8.7 5.66 7 6 C6.67 9.63 6.34 13.26 6 17 C4.02 17 2.04 17 0 17 C0 11.39 0 5.78 0 0 Z " fill="#FFFFFF" transform="translate(42,11)"/>
<path d="M0 0 C0.99 0.33 1.98 0.66 3 1 C3.33 1.99 3.66 2.98 4 4 C3.01 5.485 3.01 5.485 2 7 C0.68 6.67 -0.64 6.34 -2 6 C-2.33 4.68 -2.66 3.36 -3 2 C-2.01 1.34 -1.02 0.68 0 0 Z " fill="#FFFFFF" transform="translate(53,22)"/>
</svg>
