<?xml version="1.0" encoding="UTF-8"?>
<svg id="Layer_1" xmlns="http://www.w3.org/2000/svg" viewBox="0 0 78.47 79.03">
  <defs>
    <style>
      .cls-1 {
        fill: #624fa0;
      }

      .cls-2 {
        fill: #634fa0;
      }
    </style>
  </defs>
  <path class="cls-1" d="M78.41,78.73c-14.57-.01-29.2.84-43.69-.26-16.8-1.27-30.12-14.01-33.74-30.34C-3.97,25.8,10.42,5.34,31,.95c9.97-2.13,19.42-.74,28.38,4.62,10.22,6.11,16.21,14.95,18.82,26.34.23,1,.19,2.06.28,3.09-.02,14.57-.05,29.15-.07,43.72ZM64.52,64.59c0-9.4.57-18.61-.13-27.72-1.16-15.12-15.11-25.09-30.05-22.19-13.21,2.56-22.31,16.15-19.71,29.43,2.73,13.92,16.12,23.02,29.73,20.07,2.87-.62,5.63-1.77,8.45-2.68.07,1.03.14,2.03.21,3.08h11.51Z"/>
  <path class="cls-2" d="M39.31,52.74c-7.37-.04-13.11-5.82-13.12-13.25-.02-7.41,5.96-13.4,13.35-13.38,7.32.02,13.43,6.2,13.33,13.47-.1,7.41-6.06,13.2-13.56,13.16Z"/>
</svg>